<svg width="10" height="14" viewBox="0 0 10 14" fill="none" xmlns="http://www.w3.org/2000/svg">
<mask id="mask0_39475_790" style="mask-type:alpha" maskUnits="userSpaceOnUse" x="0" y="0" width="10" height="14">
<path fill-rule="evenodd" clip-rule="evenodd" d="M0.00146484 13.0803V0.0803223H9.99234V13.0803H0.00146484Z" fill="white"/>
</mask>
<g mask="url(#mask0_39475_790)">
<path fill-rule="evenodd" clip-rule="evenodd" d="M9.99239 5.1292C9.99239 9.17199 5.47603 12.9162 5.47603 12.9162C5.21214 13.135 4.78025 13.135 4.51636 12.9162C4.51636 12.9162 0 9.17199 0 5.1292C2.51256e-05 2.34077 2.23691 0.0803223 4.99621 0.0803223C7.7555 0.0803223 9.99239 2.34077 9.99239 5.1292Z" fill="#DF9186"/>
</g>
<path fill-rule="evenodd" clip-rule="evenodd" d="M4.99604 7.66931C3.61001 7.66931 2.48242 6.5298 2.48242 5.1292C2.48242 3.72858 3.61003 2.58905 4.99604 2.58905C6.38202 2.58905 7.50963 3.72856 7.50963 5.12918C7.50963 6.52978 6.38207 7.66931 4.99604 7.66931Z" fill="#FBDDCE"/>
</svg>
